<svg id="Layer_1" data-name="Layer 1" xmlns="http://www.w3.org/2000/svg" viewBox="0 0 630.79 319.71"><defs><style>.cls-1{fill:#ff5a2d;}</style></defs><path class="cls-1" d="M388.61,172.24h-10.5v-5h10.5a3,3,0,0,0,3.05-3V8.05A3.06,3.06,0,0,0,388.61,5H274.69a3.06,3.06,0,0,0-3.05,3.05v10.5h-5V8.05a8.06,8.06,0,0,1,8.05-8H388.61a8.06,8.06,0,0,1,8.05,8.05V164.2A8.06,8.06,0,0,1,388.61,172.24Z"/><path class="cls-1" d="M372.56,188.29h-13V169.74h5v13.55h8a3,3,0,0,0,3.05-3V24.09a3,3,0,0,0-3.05-3H258.64a3,3,0,0,0-3,3v8h13.55v5H250.59v-13a8.06,8.06,0,0,1,8-8H372.56a8.06,8.06,0,0,1,8.05,8V180.25A8.06,8.06,0,0,1,372.56,188.29Z"/><path class="cls-1" d="M364.56,169.74h-5V40.14a3,3,0,0,0-3.05-3H269.14v-5h87.37a8.06,8.06,0,0,1,8.05,8Z"/><path class="cls-1" d="M356.51,204.64H242.59a8,8,0,0,1-8-8V40.44a8,8,0,0,1,8-8h10.5v5h-10.5a3,3,0,0,0-3,3V196.6a3,3,0,0,0,3,3H356.51a3,3,0,0,0,3.05-3V186.09h5V196.6A8.06,8.06,0,0,1,356.51,204.64Z"/><path class="cls-1" d="M329.52,103.82c-1-.33-2-.66-3-.95.16-.7.33-1.4.46-2.06,2.29-11.11.78-20.06-4.31-23-4.9-2.83-12.91.13-21,7.17-.77.68-1.56,1.39-2.33,2.14-.51-.49-1-1-1.56-1.43-8.47-7.53-17-10.71-22.07-7.74-4.9,2.79-6.35,11.21-4.29,21.73.2,1,.44,2.06.69,3.12-1.21.35-2.36.7-3.46,1.1-10,3.45-16.3,8.87-16.3,14.52,0,5.82,6.82,11.66,17.16,15.2.82.28,1.67.55,2.53.79-.28,1.14-.53,2.26-.73,3.36-2,10.34-.43,18.55,4.45,21.36,5,2.91,13.5-.07,21.73-7.28.64-.57,1.3-1.17,2-1.8.85.83,1.69,1.6,2.53,2.31,8,6.86,15.86,9.65,20.74,6.82,5-2.91,6.68-11.73,4.55-22.46-.17-.82-.35-1.65-.57-2.51.59-.18,1.17-.35,1.74-.55,10.77-3.56,17.77-9.33,17.77-15.22C346.21,112.77,339.66,107.3,329.52,103.82Zm-2.34,26-1.58.49a95.88,95.88,0,0,0-4.75-11.9,94.74,94.74,0,0,0,4.57-11.71c.95.27,1.88.56,2.78.88,8.69,3,14,7.4,14,10.81C342.19,122.06,336.47,126.78,327.18,129.84Zm-3.86,7.64a33.85,33.85,0,0,1,.46,12.4c-.55,3-1.68,5-3.08,5.83-2.95,1.71-9.28-.51-16.11-6.38-.79-.68-1.58-1.39-2.37-2.15a95.34,95.34,0,0,0,7.87-10,92.55,92.55,0,0,0,12.7-2C323,136,323.18,136.75,323.32,137.48Zm-39,17.94c-2.9,1-5.19,1-6.58.25-3-1.7-4.2-8.3-2.51-17.14.18-1,.42-2.05.68-3.12a94.59,94.59,0,0,0,12.65,1.84,97.08,97.08,0,0,0,8.07,9.95c-.61.59-1.2,1.14-1.8,1.65A34.63,34.63,0,0,1,284.34,155.42Zm-13.55-25.6a33.82,33.82,0,0,1-11-5.81c-2.32-2-3.5-4-3.5-5.58,0-3.41,5.1-7.77,13.61-10.74,1-.37,2.11-.7,3.23-1a95.13,95.13,0,0,0,4.58,11.86,97.81,97.81,0,0,0-4.64,12C272.31,130.31,271.54,130.08,270.79,129.82Zm4.55-30.9c-1.76-9-.59-15.82,2.35-17.53,3.13-1.81,10.08.77,17.4,7.28.47.42.93.85,1.41,1.3a97,97,0,0,0-8,9.91A96.62,96.62,0,0,0,276,101.82C275.72,100.83,275.52,99.88,275.34,98.92Zm40.49,10c-.94-1.62-1.89-3.18-2.87-4.7,3,.39,5.87.88,8.57,1.51-.81,2.58-1.82,5.29-3,8.08Q317.26,111.4,315.83,108.92ZM299.3,92.84a76.78,76.78,0,0,1,5.52,6.67c-1.83-.09-3.7-.13-5.57-.13s-3.7,0-5.52.13C295.56,97.11,297.43,94.87,299.3,92.84ZM282.69,109c-.93,1.62-1.81,3.23-2.66,4.86-1.17-2.77-2.16-5.5-3-8.12,2.68-.61,5.54-1.08,8.51-1.47q-1.46,2.31-2.86,4.73Zm3,24a84.6,84.6,0,0,1-8.65-1.4,87.73,87.73,0,0,1,3-8.28c.84,1.63,1.72,3.24,2.66,4.86h0C283.66,129.75,284.65,131.34,285.66,132.92Zm13.75,11.39c-1.9-2.06-3.79-4.33-5.64-6.77,1.79.07,3.63.11,5.5.11s3.81,0,5.66-.13A84.84,84.84,0,0,1,299.41,144.31Zm19.15-21.22c1.24,2.86,2.31,5.63,3.15,8.25a84.38,84.38,0,0,1-8.76,1.49c1-1.54,1.94-3.14,2.88-4.79S317.71,124.76,318.56,123.09Zm-6.2,3q-2.21,3.83-4.51,7.26c-2.79.2-5.67.29-8.6.29s-5.76-.09-8.51-.27c-1.59-2.33-3.13-4.77-4.58-7.28h0c-1.45-2.51-2.79-5-4-7.57,1.21-2.53,2.55-5.06,4-7.58h0c1.45-2.51,3-4.93,4.54-7.24,2.79-.22,5.65-.33,8.55-.33h0c2.91,0,5.78.11,8.56.33,1.56,2.29,3.06,4.71,4.53,7.23s2.83,5.06,4.05,7.53C315.18,121,313.83,123.53,312.36,126.06Zm8.29-44.78C323.78,83.1,325,90.41,323,100c-.13.61-.27,1.23-.42,1.87a99.82,99.82,0,0,0-12.56-2,95.66,95.66,0,0,0-7.94-9.9c.71-.69,1.45-1.35,2.16-2C311.2,82,317.7,79.58,320.65,81.28ZM299.27,110a8.38,8.38,0,1,1-8.38,8.38A8.38,8.38,0,0,1,299.27,110Z"/><path d="M0,319v-5.33l5.5-1V275L0,274v-5.36H23.27A24.24,24.24,0,0,1,33,270.38a13.53,13.53,0,0,1,6.12,5A14.22,14.22,0,0,1,33.24,296a20.55,20.55,0,0,1-8.8,1.88L14.21,298v14.59l5.5,1V319Zm14.21-27.73h8.68q4.91,0,7.26-2a7.13,7.13,0,0,0,2.35-5.79,7.78,7.78,0,0,0-2.28-5.89q-2.28-2.2-6.95-2.2H14.21ZM32.74,319l-9.61-23.17,8.16-1.34,8.16,18.29,3.94.83V319Z"/><path d="M65.93,319.71a17.49,17.49,0,0,1-9.21-2.37,16.24,16.24,0,0,1-6.09-6.55,20.61,20.61,0,0,1-2.16-9.58v-1.45A21.53,21.53,0,0,1,50.6,290a16.71,16.71,0,0,1,5.86-6.7A15.19,15.19,0,0,1,65,280.88a16.46,16.46,0,0,1,8.52,2,13,13,0,0,1,5.2,5.79,21,21,0,0,1,1.77,9v5h-23l-.07.18a13.36,13.36,0,0,0,1.23,5.22,8.51,8.51,0,0,0,3.11,3.59A8.83,8.83,0,0,0,66.7,313a17.54,17.54,0,0,0,5.53-.83,17.09,17.09,0,0,0,4.6-2.35l2.73,5.46a19.34,19.34,0,0,1-5.64,3.15A22.81,22.81,0,0,1,65.93,319.71Zm-8.29-23.14H72.12v-.89a11.41,11.41,0,0,0-.74-4.31,6.16,6.16,0,0,0-2.32-2.89,7.13,7.13,0,0,0-4-1,6.07,6.07,0,0,0-3.7,1.17,8.24,8.24,0,0,0-2.54,3.2,15.8,15.8,0,0,0-1.3,4.58Z"/><path d="M98,319.71q-5.7,0-8.88-2.94a10.45,10.45,0,0,1-3.19-8.09,10.25,10.25,0,0,1,1.94-6.19,12.55,12.55,0,0,1,5.67-4.17,24.33,24.33,0,0,1,9.06-1.5h5.7v-3.15a6.37,6.37,0,0,0-1.78-4.74,7.05,7.05,0,0,0-5.17-1.76,11.45,11.45,0,0,0-3.42.47A8.85,8.85,0,0,0,95.22,289l-.8,5H88L88,284.78a25.13,25.13,0,0,1,6.15-2.85,25.4,25.4,0,0,1,7.54-1.05q7.13,0,11.22,3.33t4.1,9.56v16.5c0,.5,0,1,0,1.48s0,1,.08,1.42l3.81.48V319H109.5c-.23-.81-.44-1.59-.64-2.35a16.62,16.62,0,0,1-.43-2.28,15.62,15.62,0,0,1-4.51,3.85A11.93,11.93,0,0,1,98,319.71Zm2-6.75a10.3,10.3,0,0,0,4.91-1.22,8.71,8.71,0,0,0,3.42-3.1v-6.26h-5.8c-2.61,0-4.57.61-5.9,1.82a5.59,5.59,0,0,0-2,4.23A4.15,4.15,0,0,0,96,311.79,6,6,0,0,0,99.92,313Z"/><path d="M142.45,319.71a16.81,16.81,0,0,1-9.11-2.41,16,16,0,0,1-6-6.64,21.8,21.8,0,0,1-2.09-9.76v-1.21a21.69,21.69,0,0,1,2.08-9.68,16,16,0,0,1,5.92-6.69,16.69,16.69,0,0,1,9.12-2.44,20.86,20.86,0,0,1,8.36,1.54,18.55,18.55,0,0,1,5.85,3.82l0,10H150l-1.28-6.6a6.93,6.93,0,0,0-2.45-1.61,8.43,8.43,0,0,0-3.25-.61,7.74,7.74,0,0,0-4.89,1.56,9.61,9.61,0,0,0-3.08,4.3,18,18,0,0,0-1.06,6.42v1.21a18,18,0,0,0,1.08,6.64,9,9,0,0,0,3,4.08,7.35,7.35,0,0,0,4.4,1.38,7.21,7.21,0,0,0,4.9-1.63,7.79,7.79,0,0,0,2.47-4.49h7.54l.1.21a15.78,15.78,0,0,1-2.16,6.51,12,12,0,0,1-4.91,4.48A17.42,17.42,0,0,1,142.45,319.71Z"/><path d="M176.44,319.64A10.06,10.06,0,0,1,169,317q-2.66-2.68-2.66-8.56V287.79h-5.46v-6.22h5.46v-9.09H175v9.09h7.4v6.22H175V308.4a5.1,5.1,0,0,0,1,3.47,3.42,3.42,0,0,0,2.68,1.09,14.61,14.61,0,0,0,2.17-.17,18.88,18.88,0,0,0,1.91-.35l.9,6.12a27.89,27.89,0,0,1-3.47.77A24.83,24.83,0,0,1,176.44,319.64Z"/><path d="M205.13,319v-5.33l5.5-1V275l-5.5-1v-5.36h14.32l23.09,36.75.21-.07V275l-6.36-1v-5.36H256.1V274l-5.5,1v44h-8.26l-23.65-36.62-.21,0v30.22l6.36,1V319Z"/><path d="M272.8,319.71c-3.8,0-6.77-1-8.89-2.94a10.48,10.48,0,0,1-3.18-8.09,10.25,10.25,0,0,1,1.94-6.19,12.55,12.55,0,0,1,5.67-4.17,24.33,24.33,0,0,1,9.06-1.5h5.7v-3.15a6.37,6.37,0,0,0-1.78-4.74,7.07,7.07,0,0,0-5.17-1.76,11.45,11.45,0,0,0-3.42.47,8.85,8.85,0,0,0-2.66,1.33l-.8,5h-6.39l-.07-9.24a25.13,25.13,0,0,1,6.15-2.85,25.4,25.4,0,0,1,7.54-1.05q7.13,0,11.22,3.33t4.1,9.56v16.5c0,.5,0,1,0,1.48s0,1,.09,1.42l3.8.48V319H284.35c-.23-.81-.45-1.59-.64-2.35a16.62,16.62,0,0,1-.43-2.28,15.53,15.53,0,0,1-4.52,3.85A11.86,11.86,0,0,1,272.8,319.71Zm2-6.75a10.3,10.3,0,0,0,4.91-1.22,8.71,8.71,0,0,0,3.42-3.1v-6.26h-5.81c-2.6,0-4.57.61-5.89,1.82a5.55,5.55,0,0,0-2,4.23,4.17,4.17,0,0,0,1.38,3.36A6,6,0,0,0,274.77,313Z"/><path d="M313.35,319.64a10,10,0,0,1-7.43-2.68q-2.66-2.68-2.66-8.56V287.79H297.8v-6.22h5.46v-9.09h8.68v9.09h7.4v6.22h-7.4V308.4a5.1,5.1,0,0,0,1,3.47A3.42,3.42,0,0,0,315.6,313a14.39,14.39,0,0,0,2.16-.17,18.63,18.63,0,0,0,1.92-.35l.9,6.12a27.89,27.89,0,0,1-3.47.77A25,25,0,0,1,313.35,319.64Z"/><path d="M324.83,319v-5.33l5.19-1V288l-5.5-1v-5.36h14.21v31.05l5.15,1V319Zm4.84-45.88V265h9.06v8.06Z"/><path d="M362.42,319l-12.14-31.46-4-.59v-5.36h17.11v5.36l-4.32.69,6.74,18.77.9,3H367l1-3,6.81-18.77-4.73-.69v-5.36h17.08v5.36l-4.08.62L370.89,319Z"/><path d="M407.12,319.71a17.46,17.46,0,0,1-9.21-2.37,16.17,16.17,0,0,1-6.09-6.55,20.61,20.61,0,0,1-2.16-9.58v-1.45a21.53,21.53,0,0,1,2.13-9.74,16.71,16.71,0,0,1,5.86-6.7,15.17,15.17,0,0,1,8.51-2.44,16.49,16.49,0,0,1,8.52,2,13,13,0,0,1,5.2,5.79,21,21,0,0,1,1.76,9v5H398.69l-.07.18a13.54,13.54,0,0,0,1.22,5.22,8.6,8.6,0,0,0,3.12,3.59,8.79,8.79,0,0,0,4.92,1.32,17.56,17.56,0,0,0,5.54-.83,16.89,16.89,0,0,0,4.59-2.35l2.74,5.46a19.34,19.34,0,0,1-5.64,3.15A22.81,22.81,0,0,1,407.12,319.71Zm-8.29-23.14h14.48v-.89a11.61,11.61,0,0,0-.74-4.31,6.16,6.16,0,0,0-2.32-2.89,7.13,7.13,0,0,0-4-1,6.07,6.07,0,0,0-3.7,1.17,8.24,8.24,0,0,0-2.54,3.2,15.49,15.49,0,0,0-1.3,4.58Z"/><path d="M444,319v-5.33l5.5-1V275l-5.5-1v-5.36h14.32l23.09,36.75.21-.07V275l-6.36-1v-5.36H495V274l-5.5,1v44h-8.26l-23.65-36.62-.21,0v30.22l6.36,1V319Z"/><path d="M516.76,319.71a17.15,17.15,0,0,1-9.26-2.42,15.83,15.83,0,0,1-5.95-6.73,22.6,22.6,0,0,1-2.08-9.91v-.72a22.44,22.44,0,0,1,2.08-9.86,16.09,16.09,0,0,1,5.95-6.74,18.64,18.64,0,0,1,18.46,0,16,16,0,0,1,5.95,6.72,22.48,22.48,0,0,1,2.07,9.89v.72a22.6,22.6,0,0,1-2.07,9.91,16,16,0,0,1-5.93,6.73A17,17,0,0,1,516.76,319.71Zm0-6.71a7.22,7.22,0,0,0,4.79-1.58,9.33,9.33,0,0,0,2.82-4.35,20.24,20.24,0,0,0,.93-6.42v-.72a19.9,19.9,0,0,0-.93-6.36,9.41,9.41,0,0,0-2.84-4.36,7.29,7.29,0,0,0-4.84-1.59,7.19,7.19,0,0,0-4.77,1.59,9.31,9.31,0,0,0-2.82,4.36,20.21,20.21,0,0,0-.91,6.36v.72a20.56,20.56,0,0,0,.91,6.42,9.13,9.13,0,0,0,2.84,4.35A7.36,7.36,0,0,0,516.76,313Z"/><path d="M552.72,319.64a10,10,0,0,1-7.43-2.68q-2.67-2.68-2.67-8.56V287.79h-5.46v-6.22h5.46v-9.09h8.68v9.09h7.4v6.22h-7.4V308.4a5,5,0,0,0,1,3.47A3.42,3.42,0,0,0,555,313a14.58,14.58,0,0,0,2.16-.17c.79-.11,1.43-.23,1.92-.35l.9,6.12a28.49,28.49,0,0,1-3.48.77A24.72,24.72,0,0,1,552.72,319.64Z"/><path d="M580.73,319.71a17.5,17.5,0,0,1-9.22-2.37,16.15,16.15,0,0,1-6.08-6.55,20.61,20.61,0,0,1-2.17-9.58v-1.45a21.53,21.53,0,0,1,2.13-9.74,16.71,16.71,0,0,1,5.86-6.7,15.19,15.19,0,0,1,8.51-2.44,16.44,16.44,0,0,1,8.52,2,13,13,0,0,1,5.2,5.79,21,21,0,0,1,1.77,9v5h-23l-.07.18a13.36,13.36,0,0,0,1.23,5.22,8.51,8.51,0,0,0,3.11,3.59,8.83,8.83,0,0,0,4.93,1.32,17.54,17.54,0,0,0,5.53-.83,17.09,17.09,0,0,0,4.6-2.35l2.73,5.46a19.34,19.34,0,0,1-5.64,3.15A22.8,22.8,0,0,1,580.73,319.71Zm-8.3-23.14h14.48v-.89a11.41,11.41,0,0,0-.74-4.31,6.16,6.16,0,0,0-2.32-2.89,7.1,7.1,0,0,0-4-1,6.09,6.09,0,0,0-3.7,1.17,8.24,8.24,0,0,0-2.54,3.2,15.8,15.8,0,0,0-1.3,4.58Z"/><path d="M615.92,319.71a34.07,34.07,0,0,1-7.48-.78,38.93,38.93,0,0,1-7-2.3l-.1-9.89h6.25l1.32,5.39a16.66,16.66,0,0,0,3.06,1,15.19,15.19,0,0,0,3.51.37c2.49,0,4.24-.44,5.27-1.32a4.09,4.09,0,0,0,1.54-3.25,4,4,0,0,0-1.61-3.2c-1.07-.88-3.12-1.65-6.14-2.29q-6.71-1.45-9.87-4.24a9.19,9.19,0,0,1-3.16-7.24,9.94,9.94,0,0,1,1.64-5.57,11.46,11.46,0,0,1,4.84-4,18.32,18.32,0,0,1,7.87-1.51,29.71,29.71,0,0,1,7.55.88,20.48,20.48,0,0,1,5.62,2.34l.21,9.51h-6.19L622,288.69a8.17,8.17,0,0,0-2.49-1.17,11.49,11.49,0,0,0-3.25-.42,7.34,7.34,0,0,0-4.53,1.26,3.9,3.9,0,0,0-1.12,5.17,4.59,4.59,0,0,0,2.07,1.64,22.45,22.45,0,0,0,4.51,1.44q7.31,1.69,10.44,4.42a9.11,9.11,0,0,1,3.15,7.23,10.44,10.44,0,0,1-3.67,8.23Q623.46,319.7,615.92,319.71Z"/></svg>