<svg id="Layer_1" data-name="Layer 1" xmlns="http://www.w3.org/2000/svg" viewBox="0 0 162.11 204.64"><defs><style>.cls-1{fill:#ff5a2d;}</style></defs><path class="cls-1" d="M154.06,172.24h-10.5v-5h10.5a3,3,0,0,0,3.05-3V8.05A3.06,3.06,0,0,0,154.06,5H40.14a3.06,3.06,0,0,0-3,3.05v10.5h-5V8.05a8.06,8.06,0,0,1,8-8H154.06a8.06,8.06,0,0,1,8.05,8.05V164.2A8.06,8.06,0,0,1,154.06,172.24Z"/><path class="cls-1" d="M138,188.29H125V169.74h5v13.55h8a3,3,0,0,0,3.05-3V24.09a3,3,0,0,0-3.05-3H24.09a3,3,0,0,0-3.05,3v8H34.59v5H16v-13a8.06,8.06,0,0,1,8.05-8H138a8.06,8.06,0,0,1,8.05,8V180.25A8.06,8.06,0,0,1,138,188.29Z"/><path class="cls-1" d="M130,169.74h-5V40.14a3,3,0,0,0-3.05-3H34.59v-5H122a8.06,8.06,0,0,1,8,8Z"/><path class="cls-1" d="M122,204.64H8a8.05,8.05,0,0,1-8-8V40.44a8.05,8.05,0,0,1,8-8h10.5v5H8a3,3,0,0,0-3,3V196.6a3,3,0,0,0,3,3H122a3,3,0,0,0,3.05-3V186.09h5V196.6A8.06,8.06,0,0,1,122,204.64Z"/><path class="cls-1" d="M95,103.82c-1-.33-2-.66-3-.95.16-.7.33-1.4.46-2.06,2.29-11.11.79-20.06-4.31-23C83.2,75,75.19,78,67.1,85c-.77.68-1.55,1.39-2.32,2.14-.52-.49-1.05-1-1.56-1.43C54.75,78.17,46.24,75,41.14,78c-4.9,2.79-6.34,11.21-4.29,21.73.2,1,.44,2.06.7,3.12-1.21.35-2.37.7-3.47,1.1-10,3.45-16.3,8.87-16.3,14.52,0,5.82,6.82,11.66,17.16,15.2.83.28,1.67.55,2.53.79-.27,1.14-.53,2.26-.73,3.36-2,10.34-.42,18.55,4.45,21.36,5.05,2.91,13.5-.07,21.73-7.28.65-.57,1.31-1.17,2-1.8.84.83,1.68,1.6,2.53,2.31,8,6.86,15.86,9.65,20.73,6.82,5-2.91,6.68-11.73,4.55-22.46-.16-.82-.35-1.65-.57-2.51.59-.18,1.18-.35,1.75-.55,10.76-3.56,17.76-9.33,17.76-15.22C111.66,112.77,105.12,107.3,95,103.82Zm-2.35,26-1.58.49a95.88,95.88,0,0,0-4.75-11.9,94.74,94.74,0,0,0,4.57-11.71c.95.27,1.89.56,2.79.88,8.69,3,14,7.4,14,10.81C107.65,122.06,101.92,126.78,92.63,129.84Zm-3.85,7.64a34.3,34.3,0,0,1,.46,12.4c-.55,3-1.69,5-3.08,5.83-3,1.71-9.28-.51-16.12-6.38-.79-.68-1.58-1.39-2.37-2.15a95.34,95.34,0,0,0,7.87-10,92.7,92.7,0,0,0,12.71-2C88.47,136,88.63,136.75,88.78,137.48Zm-39,17.94c-2.89,1-5.18,1-6.58.25-3-1.7-4.2-8.3-2.51-17.14.18-1,.42-2.05.68-3.12A94.59,94.59,0,0,0,54,137.25a97.08,97.08,0,0,0,8.07,9.95c-.61.59-1.19,1.14-1.8,1.65A34.63,34.63,0,0,1,49.79,155.42Zm-13.55-25.6A33.66,33.66,0,0,1,25.3,124c-2.33-2-3.5-4-3.5-5.58,0-3.41,5.09-7.77,13.6-10.74,1-.37,2.11-.7,3.23-1a95.13,95.13,0,0,0,4.58,11.86,97.81,97.81,0,0,0-4.64,12C37.77,130.31,37,130.08,36.24,129.82Zm4.55-30.9c-1.76-9-.59-15.82,2.35-17.53,3.13-1.81,10.08.77,17.4,7.28.48.42.93.85,1.41,1.3a95.58,95.58,0,0,0-8,9.91,96.51,96.51,0,0,0-12.53,1.94C41.18,100.83,41,99.88,40.79,98.92Zm40.49,10c-.94-1.62-1.89-3.18-2.86-4.7,3,.39,5.87.88,8.56,1.51a84.81,84.81,0,0,1-3,8.08Q82.71,111.4,81.28,108.92ZM64.76,92.84a80.59,80.59,0,0,1,5.52,6.67c-1.84-.09-3.71-.13-5.58-.13s-3.7,0-5.52.13C61,97.11,62.89,94.87,64.76,92.84ZM48.14,109c-.93,1.62-1.81,3.23-2.65,4.86-1.18-2.77-2.17-5.5-3-8.12,2.67-.61,5.53-1.08,8.5-1.47q-1.45,2.31-2.86,4.73Zm3,24a85.06,85.06,0,0,1-8.65-1.4c.83-2.67,1.85-5.46,3-8.28.85,1.63,1.73,3.24,2.66,4.86h0C49.12,129.75,50.11,131.34,51.11,132.92Zm13.76,11.39c-1.91-2.06-3.8-4.33-5.65-6.77,1.8.07,3.63.11,5.5.11s3.81,0,5.67-.13C68.55,140,66.72,142.27,64.87,144.31ZM84,123.09a87.37,87.37,0,0,1,3.15,8.25,84.38,84.38,0,0,1-8.76,1.49c1-1.54,1.94-3.14,2.88-4.79S83.17,124.76,84,123.09Zm-6.2,3c-1.46,2.55-3,5-4.51,7.26-2.79.2-5.66.29-8.6.29s-5.76-.09-8.51-.27c-1.59-2.33-3.13-4.77-4.58-7.28h0c-1.45-2.51-2.79-5-4-7.57,1.21-2.53,2.55-5.06,4-7.58h0c1.45-2.51,3-4.93,4.55-7.24,2.78-.22,5.64-.33,8.54-.33h0q4.38,0,8.57.33c1.55,2.29,3.06,4.71,4.52,7.23s2.83,5.06,4.06,7.53C80.64,121,79.28,123.53,77.81,126.06ZM86.1,81.28c3.14,1.82,4.36,9.13,2.38,18.72-.12.61-.27,1.23-.42,1.87a99.53,99.53,0,0,0-12.56-2A94.35,94.35,0,0,0,67.56,90c.72-.69,1.45-1.35,2.17-2C76.66,82,83.15,79.58,86.1,81.28ZM64.72,110a8.38,8.38,0,1,1-8.38,8.38A8.38,8.38,0,0,1,64.72,110Z"/></svg>